<?xml version="1.0" encoding="UTF-8" standalone="no"?>
<!DOCTYPE svg PUBLIC "-//W3C//DTD SVG 1.1//EN"
 "http://www.w3.org/Graphics/SVG/1.1/DTD/svg11.dtd">
<!-- Generated by graphviz version 2.43.0 (0)
 -->
<!-- Title: pipeline Pages: 1 -->
<svg width="1941pt" height="109pt"
 viewBox="0.00 0.00 1941.00 108.78" xmlns="http://www.w3.org/2000/svg" xmlns:xlink="http://www.w3.org/1999/xlink">
<g id="graph0" class="graph" transform="scale(1 1) rotate(0) translate(4 104.78)">
<title>pipeline</title>
<polygon fill="#ffffff" stroke="transparent" points="-4,4 -4,-104.78 1937,-104.78 1937,4 -4,4"/>
<text text-anchor="start" x="440.5" y="-84.98" font-family="Helvetica,sans-Serif" font-weight="bold" font-size="16.00" fill="#1b2733">CellScribe pipeline</text>
<text text-anchor="start" x="606.5" y="-84.98" font-family="Helvetica,sans-Serif" font-size="16.00" fill="#1b2733"> — a live run for “striatal parvalbumin&#45;positive GABAergic interneuron” (LLM = Groq llama&#45;3.3&#45;70b, free tier)</text>
<!-- retrieve -->
<g id="node1" class="node">
<title>retrieve</title>
<path fill="#2c6fa6" stroke="transparent" stroke-width="0" d="M112,-69.78C112,-69.78 12,-69.78 12,-69.78 6,-69.78 0,-63.78 0,-57.78 0,-57.78 0,-45.78 0,-45.78 0,-39.78 6,-33.78 12,-33.78 12,-33.78 112,-33.78 112,-33.78 118,-33.78 124,-39.78 124,-45.78 124,-45.78 124,-57.78 124,-57.78 124,-63.78 118,-69.78 112,-69.78"/>
<text text-anchor="start" x="22.5" y="-54.18" font-family="Helvetica,sans-Serif" font-weight="bold" font-size="12.00" fill="white">1 · Retrieve</text>
<text text-anchor="start" x="12" y="-43.78" font-family="Helvetica,sans-Serif" font-size="10.00" fill="#e8eef4">select relevant tools</text>
</g>
<!-- plan -->
<g id="node2" class="node">
<title>plan</title>
<path fill="#c6791f" stroke="transparent" stroke-width="0" d="M273,-69.78C273,-69.78 173,-69.78 173,-69.78 167,-69.78 161,-63.78 161,-57.78 161,-57.78 161,-45.78 161,-45.78 161,-39.78 167,-33.78 173,-33.78 173,-33.78 273,-33.78 273,-33.78 279,-33.78 285,-39.78 285,-45.78 285,-45.78 285,-57.78 285,-57.78 285,-63.78 279,-69.78 273,-69.78"/>
<text text-anchor="start" x="197" y="-54.18" font-family="Helvetica,sans-Serif" font-weight="bold" font-size="12.00" fill="white">2 · Plan</text>
<text text-anchor="start" x="173" y="-43.78" font-family="Helvetica,sans-Serif" font-size="10.00" fill="#e8eef4">LLM orders the tools</text>
</g>
<!-- retrieve&#45;&gt;plan -->
<g id="edge1" class="edge">
<title>retrieve&#45;&gt;plan</title>
<path fill="none" stroke="#1b2733" stroke-width="1.5" d="M124.02,-51.78C133.56,-51.78 143.47,-51.78 153.16,-51.78"/>
<polygon fill="#1b2733" stroke="#1b2733" stroke-width="1.5" points="153.38,-54.41 160.88,-51.78 153.38,-49.16 153.38,-54.41"/>
</g>
<!-- ground -->
<g id="node3" class="node">
<title>ground</title>
<path fill="#4c8c4a" stroke="transparent" stroke-width="0" d="M494,-74.78C494,-74.78 334,-74.78 334,-74.78 328,-74.78 322,-68.78 322,-62.78 322,-62.78 322,-40.78 322,-40.78 322,-34.78 328,-28.78 334,-28.78 334,-28.78 494,-28.78 494,-28.78 500,-28.78 506,-34.78 506,-40.78 506,-40.78 506,-62.78 506,-62.78 506,-68.78 500,-74.78 494,-74.78"/>
<text text-anchor="start" x="378.5" y="-59.18" font-family="Helvetica,sans-Serif" font-weight="bold" font-size="12.00" fill="white">3 · Ground</text>
<text text-anchor="start" x="334" y="-48.78" font-family="Helvetica,sans-Serif" font-size="10.00" fill="#e8eef4">genus → interneuron CL:0000099</text>
<text text-anchor="start" x="334" y="-38.78" font-family="Helvetica,sans-Serif" font-size="10.00" fill="#e8eef4">loc → striatum UBERON:0002435</text>
</g>
<!-- plan&#45;&gt;ground -->
<g id="edge2" class="edge">
<title>plan&#45;&gt;ground</title>
<path fill="none" stroke="#1b2733" stroke-width="1.5" d="M285.1,-51.78C294.47,-51.78 304.34,-51.78 314.27,-51.78"/>
<polygon fill="#1b2733" stroke="#1b2733" stroke-width="1.5" points="314.37,-54.41 321.87,-51.78 314.37,-49.16 314.37,-54.41"/>
</g>
<!-- evidence -->
<g id="node4" class="node">
<title>evidence</title>
<path fill="#4c8c4a" stroke="transparent" stroke-width="0" d="M670,-69.78C670,-69.78 555,-69.78 555,-69.78 549,-69.78 543,-63.78 543,-57.78 543,-57.78 543,-45.78 543,-45.78 543,-39.78 549,-33.78 555,-33.78 555,-33.78 670,-33.78 670,-33.78 676,-33.78 682,-39.78 682,-45.78 682,-45.78 682,-57.78 682,-57.78 682,-63.78 676,-69.78 670,-69.78"/>
<text text-anchor="start" x="571.5" y="-54.18" font-family="Helvetica,sans-Serif" font-weight="bold" font-size="12.00" fill="white">4 · Evidence</text>
<text text-anchor="start" x="555" y="-43.78" font-family="Helvetica,sans-Serif" font-size="10.00" fill="#e8eef4">Europe PMC → 5 papers</text>
</g>
<!-- ground&#45;&gt;evidence -->
<g id="edge3" class="edge">
<title>ground&#45;&gt;evidence</title>
<path fill="none" stroke="#1b2733" stroke-width="1.5" d="M506.06,-51.78C515.8,-51.78 525.64,-51.78 535.19,-51.78"/>
<polygon fill="#1b2733" stroke="#1b2733" stroke-width="1.5" points="535.28,-54.41 542.78,-51.78 535.28,-49.16 535.28,-54.41"/>
</g>
<!-- markers -->
<g id="node5" class="node">
<title>markers</title>
<path fill="#2f9e8f" stroke="transparent" stroke-width="0" d="M886,-74.78C886,-74.78 731,-74.78 731,-74.78 725,-74.78 719,-68.78 719,-62.78 719,-62.78 719,-40.78 719,-40.78 719,-34.78 725,-28.78 731,-28.78 731,-28.78 886,-28.78 886,-28.78 892,-28.78 898,-34.78 898,-40.78 898,-40.78 898,-62.78 898,-62.78 898,-68.78 892,-74.78 886,-74.78"/>
<text text-anchor="start" x="752.5" y="-59.18" font-family="Helvetica,sans-Serif" font-weight="bold" font-size="12.00" fill="white">5 · Test markers</text>
<text text-anchor="start" x="731" y="-48.78" font-family="Helvetica,sans-Serif" font-size="10.00" fill="#e8eef4">NS&#45;Forest → GAD2·PVALB·GAD1</text>
<text text-anchor="start" x="775" y="-38.78" font-family="Helvetica,sans-Serif" font-size="10.00" fill="#e8eef4">F&#45;beta = 1.00</text>
</g>
<!-- evidence&#45;&gt;markers -->
<g id="edge4" class="edge">
<title>evidence&#45;&gt;markers</title>
<path fill="none" stroke="#1b2733" stroke-width="1.5" d="M682.17,-51.78C691.64,-51.78 701.5,-51.78 711.35,-51.78"/>
<polygon fill="#1b2733" stroke="#1b2733" stroke-width="1.5" points="711.37,-54.41 718.87,-51.78 711.37,-49.16 711.37,-54.41"/>
</g>
<!-- go -->
<g id="node6" class="node">
<title>go</title>
<path fill="#4c8c4a" stroke="transparent" stroke-width="0" d="M1137,-69.78C1137,-69.78 947,-69.78 947,-69.78 941,-69.78 935,-63.78 935,-57.78 935,-57.78 935,-45.78 935,-45.78 935,-39.78 941,-33.78 947,-33.78 947,-33.78 1137,-33.78 1137,-33.78 1143,-33.78 1149,-39.78 1149,-45.78 1149,-45.78 1149,-57.78 1149,-57.78 1149,-63.78 1143,-69.78 1137,-69.78"/>
<text text-anchor="start" x="987" y="-54.18" font-family="Helvetica,sans-Serif" font-weight="bold" font-size="12.00" fill="white">6 · GO × marker</text>
<text text-anchor="start" x="947" y="-43.78" font-family="Helvetica,sans-Serif" font-size="10.00" fill="#e8eef4">QuickGO → GAD1,GAD2 ← GO:0009449</text>
</g>
<!-- markers&#45;&gt;go -->
<g id="edge5" class="edge">
<title>markers&#45;&gt;go</title>
<path fill="none" stroke="#1b2733" stroke-width="1.5" d="M898.01,-51.78C907.48,-51.78 917.2,-51.78 926.91,-51.78"/>
<polygon fill="#1b2733" stroke="#1b2733" stroke-width="1.5" points="927.19,-54.41 934.69,-51.78 927.19,-49.16 927.19,-54.41"/>
</g>
<!-- define -->
<g id="node7" class="node">
<title>define</title>
<path fill="#c6791f" stroke="transparent" stroke-width="0" d="M1390,-74.78C1390,-74.78 1250,-74.78 1250,-74.78 1244,-74.78 1238,-68.78 1238,-62.78 1238,-62.78 1238,-40.78 1238,-40.78 1238,-34.78 1244,-28.78 1250,-28.78 1250,-28.78 1390,-28.78 1390,-28.78 1396,-28.78 1402,-34.78 1402,-40.78 1402,-40.78 1402,-62.78 1402,-62.78 1402,-68.78 1396,-74.78 1390,-74.78"/>
<text text-anchor="start" x="1287" y="-59.18" font-family="Helvetica,sans-Serif" font-weight="bold" font-size="12.00" fill="white">7 · Define</text>
<text text-anchor="start" x="1250" y="-48.78" font-family="Helvetica,sans-Serif" font-size="10.00" fill="#e8eef4">LLM drafts genus–differentia</text>
<text text-anchor="start" x="1265.5" y="-38.78" font-family="Helvetica,sans-Serif" font-size="10.00" fill="#e8eef4">(80–120 w, inline refs)</text>
</g>
<!-- go&#45;&gt;define -->
<g id="edge6" class="edge">
<title>go&#45;&gt;define</title>
<path fill="none" stroke="#1b2733" stroke-width="1.5" d="M1149.31,-51.78C1175.99,-51.78 1204.33,-51.78 1230.06,-51.78"/>
<polygon fill="#1b2733" stroke="#1b2733" stroke-width="1.5" points="1230.1,-54.41 1237.6,-51.78 1230.1,-49.16 1230.1,-54.41"/>
</g>
<!-- reason -->
<g id="node8" class="node">
<title>reason</title>
<path fill="#7e6bb5" stroke="transparent" stroke-width="0" d="M1578,-74.78C1578,-74.78 1451,-74.78 1451,-74.78 1445,-74.78 1439,-68.78 1439,-62.78 1439,-62.78 1439,-40.78 1439,-40.78 1439,-34.78 1445,-28.78 1451,-28.78 1451,-28.78 1578,-28.78 1578,-28.78 1584,-28.78 1590,-34.78 1590,-40.78 1590,-40.78 1590,-62.78 1590,-62.78 1590,-68.78 1584,-74.78 1578,-74.78"/>
<text text-anchor="start" x="1478.5" y="-59.18" font-family="Helvetica,sans-Serif" font-weight="bold" font-size="12.00" fill="white">8 · Reason</text>
<text text-anchor="start" x="1469" y="-48.78" font-family="Helvetica,sans-Serif" font-size="10.00" fill="#e8eef4">ELK vs whole CL →</text>
<text text-anchor="start" x="1451" y="-38.78" font-family="Helvetica,sans-Serif" font-size="10.00" fill="#e8eef4">NOVEL, under interneuron</text>
</g>
<!-- define&#45;&gt;reason -->
<g id="edge7" class="edge">
<title>define&#45;&gt;reason</title>
<path fill="none" stroke="#1b2733" stroke-width="1.5" d="M1402.08,-51.78C1411.73,-51.78 1421.58,-51.78 1431.25,-51.78"/>
<polygon fill="#1b2733" stroke="#1b2733" stroke-width="1.5" points="1431.45,-54.41 1438.95,-51.78 1431.45,-49.16 1431.45,-54.41"/>
</g>
<!-- reason&#45;&gt;markers -->
<g id="edge10" class="edge">
<title>reason&#45;&gt;markers</title>
<path fill="none" stroke="#2c6fa6" stroke-width="1.5" stroke-dasharray="5,2" d="M1446.98,-28.71C1432.34,-24.59 1416.78,-20.92 1402,-18.78 1196.58,10.98 1141.12,0.66 935,-23.78 925.46,-24.91 915.58,-26.45 905.75,-28.24"/>
<polygon fill="#2c6fa6" stroke="#2c6fa6" stroke-width="1.5" points="905.13,-25.68 898.24,-29.65 906.1,-30.84 905.13,-25.68"/>
<text text-anchor="start" x="1167" y="-4.58" font-family="Times,serif" font-size="9.00">self&#45;correct</text>
</g>
<!-- critique -->
<g id="node9" class="node">
<title>critique</title>
<path fill="#2c6fa6" stroke="transparent" stroke-width="0" d="M1728,-69.78C1728,-69.78 1639,-69.78 1639,-69.78 1633,-69.78 1627,-63.78 1627,-57.78 1627,-57.78 1627,-45.78 1627,-45.78 1627,-39.78 1633,-33.78 1639,-33.78 1639,-33.78 1728,-33.78 1728,-33.78 1734,-33.78 1740,-39.78 1740,-45.78 1740,-45.78 1740,-57.78 1740,-57.78 1740,-63.78 1734,-69.78 1728,-69.78"/>
<text text-anchor="start" x="1645.5" y="-54.18" font-family="Helvetica,sans-Serif" font-weight="bold" font-size="12.00" fill="white">9 · Critique</text>
<text text-anchor="start" x="1639" y="-43.78" font-family="Helvetica,sans-Serif" font-size="10.00" fill="#e8eef4">confidence = 1.00</text>
</g>
<!-- reason&#45;&gt;critique -->
<g id="edge8" class="edge">
<title>reason&#45;&gt;critique</title>
<path fill="none" stroke="#1b2733" stroke-width="1.5" d="M1590.21,-51.78C1599.94,-51.78 1609.83,-51.78 1619.35,-51.78"/>
<polygon fill="#1b2733" stroke="#1b2733" stroke-width="1.5" points="1619.39,-54.41 1626.89,-51.78 1619.39,-49.16 1619.39,-54.41"/>
</g>
<!-- emit -->
<g id="node10" class="node">
<title>emit</title>
<path fill="#c25e7c" stroke="transparent" stroke-width="0" d="M1921,-74.78C1921,-74.78 1789,-74.78 1789,-74.78 1783,-74.78 1777,-68.78 1777,-62.78 1777,-62.78 1777,-40.78 1777,-40.78 1777,-34.78 1783,-28.78 1789,-28.78 1789,-28.78 1921,-28.78 1921,-28.78 1927,-28.78 1933,-34.78 1933,-40.78 1933,-40.78 1933,-62.78 1933,-62.78 1933,-68.78 1927,-74.78 1921,-74.78"/>
<text text-anchor="start" x="1824.5" y="-59.18" font-family="Helvetica,sans-Serif" font-weight="bold" font-size="12.00" fill="white">10 · Emit</text>
<text text-anchor="start" x="1796.5" y="-48.78" font-family="Helvetica,sans-Serif" font-size="10.00" fill="#e8eef4">KGCL · MIRACL · SSSOM</text>
<text text-anchor="start" x="1789" y="-38.78" font-family="Helvetica,sans-Serif" font-size="10.00" fill="#e8eef4">ROBOT/OWL · GitHub issue</text>
</g>
<!-- critique&#45;&gt;emit -->
<g id="edge9" class="edge">
<title>critique&#45;&gt;emit</title>
<path fill="none" stroke="#1b2733" stroke-width="1.5" d="M1740,-51.78C1749.39,-51.78 1759.32,-51.78 1769.25,-51.78"/>
<polygon fill="#1b2733" stroke="#1b2733" stroke-width="1.5" points="1769.34,-54.41 1776.84,-51.78 1769.34,-49.16 1769.34,-54.41"/>
</g>
</g>
</svg>
